<?xml version="1.0" ?><svg viewBox="0 0 32 32" xmlns="http://www.w3.org/2000/svg"><defs><style>.cls-1{fill:none;}</style></defs><title/><g id="TELEGRAM"><rect class="cls-1" height="32" id="Frame" width="32"/><path fill="white" d="M16,2A14,14,0,1,0,30,16,14,14,0,0,0,16,2Zm8.50867,7.40686L18.04,26.39728a.84081.84081,0,0,1-1.31592.41412L13.613,22.46271l-1.3194,1.25946a.93462.93462,0,0,1-.746.36505l.26989-3.76178.1637-.14386-.005-.0069,8.79711-8.48761c.23816-.21429,0-.45239-.2619-.2619L10.4881,19.42474l-4.2995-3.1488a.84084.84084,0,0,1,.41406-1.316L23.6,8.49817A.68143.68143,0,0,1,24.50867,9.40686Z" data-name="Telegram" id="Telegram-2"/></g></svg>